<svg viewBox="0 0 100 100" xmlns="http://www.w3.org/2000/svg">
  <!-- Background circle -->
  <circle cx="50" cy="50" r="48" fill="#FF6B6B" stroke="#FF5252" stroke-width="2"/>
  
  <!-- Chef's hat -->
  <ellipse cx="50" cy="35" rx="12" ry="8" fill="#FFFFFF"/>
  <rect x="38" y="35" width="24" height="15" rx="2" fill="#FFFFFF"/>
  <circle cx="42" cy="28" r="3" fill="#FFFFFF"/>
  <circle cx="50" cy="25" r="4" fill="#FFFFFF"/>
  <circle cx="58" cy="28" r="3" fill="#FFFFFF"/>
  
  <!-- Magnifying glass -->
  <circle cx="65" cy="25" r="8" fill="none" stroke="#FFFFFF" stroke-width="2.5"/>
  <circle cx="65" cy="25" r="5" fill="none" stroke="#FFFFFF" stroke-width="1.5"/>
  <line x1="71" y1="31" x2="76" y2="36" stroke="#FFFFFF" stroke-width="2.5" stroke-linecap="round"/>
  
  <!-- Cooking pot/bowl -->
  <ellipse cx="50" cy="70" rx="18" ry="12" fill="#4ECDC4"/>
  <ellipse cx="50" cy="68" rx="18" ry="8" fill="#45B7AF"/>
  <ellipse cx="50" cy="65" rx="16" ry="6" fill="#FFFFFF" opacity="0.3"/>
  
  <!-- Steam/cooking elements -->
  <path d="M 42 58 Q 44 54 42 50" stroke="#FFFFFF" stroke-width="2" fill="none" stroke-linecap="round" opacity="0.8"/>
  <path d="M 50 58 Q 52 54 50 50" stroke="#FFFFFF" stroke-width="2" fill="none" stroke-linecap="round" opacity="0.8"/>
  <path d="M 58 58 Q 60 54 58 50" stroke="#FFFFFF" stroke-width="2" fill="none" stroke-linecap="round" opacity="0.8"/>
  
  <!-- Utensils -->
  <line x1="25" y1="40" x2="25" y2="60" stroke="#FFD93D" stroke-width="2" stroke-linecap="round"/>
  <circle cx="25" cy="37" r="3" fill="#FFD93D"/>
  <rect x="23" y="35" width="4" height="4" rx="1" fill="#FFD93D"/>
  
  <!-- Fork -->
  <line x1="75" y1="50" x2="75" y2="70" stroke="#FFD93D" stroke-width="2" stroke-linecap="round"/>
  <line x1="73" y1="47" x2="73" y2="52" stroke="#FFD93D" stroke-width="1.5" stroke-linecap="round"/>
  <line x1="75" y1="47" x2="75" y2="52" stroke="#FFD93D" stroke-width="1.5" stroke-linecap="round"/>
  <line x1="77" y1="47" x2="77" y2="52" stroke="#FFD93D" stroke-width="1.5" stroke-linecap="round"/>
  
  <!-- World/global elements (small dots representing different cuisines) -->
  <circle cx="20" cy="25" r="2" fill="#FFD93D" opacity="0.7"/>
  <circle cx="80" cy="75" r="2" fill="#4ECDC4" opacity="0.7"/>
  <circle cx="85" cy="20" r="1.5" fill="#FFFFFF" opacity="0.6"/>
  <circle cx="15" cy="75" r="1.5" fill="#FFFFFF" opacity="0.6"/>
</svg>
